<svg xmlns="http://www.w3.org/2000/svg" width="200" height="600" viewBox="0 0 200 600">
  <svg xmlns="http://www.w3.org/2000/svg" width="200" height="100" viewBox="0 0 200 100">
    <path fill="#444" d="M108.507 50.226H130v8.936H93.95V52.3l20.652-27.287h-20.01v-9.016h34.726v6.663l-20.81 27.566M85.37 59.162H73.66V15.997h11.71v43.165M81.6 0h12.39l.082.24-11.108 10.37H73.62L81.6 0M54.174 59.162c-.427-.984-.802-2.02-1.122-3.112-.293-1.09-.507-2.207-.64-3.35-1.204 2.1-2.795 3.843-4.773 5.225C45.686 59.308 43.346 60 40.62 60c-4.545 0-8.046-1.157-10.506-3.47-2.46-2.34-3.69-5.52-3.69-9.535 0-4.23 1.632-7.5 4.893-9.814 3.288-2.34 8.073-3.51 14.355-3.51h6.537v-3.43c-.003-2.074-.55-3.683-1.647-4.827-1.096-1.143-2.713-1.715-4.85-1.715-1.9 0-3.37.465-4.412 1.396-1.015.904-1.523 2.168-1.523 3.79l-11.308-.04-.04-.24c-.188-3.643 1.402-6.78 4.77-9.414 3.37-2.66 7.793-3.99 13.273-3.99 5.186 0 9.397 1.316 12.63 3.95 3.236 2.605 4.853 6.33 4.853 11.17v17.83c0 2.023.147 3.924.442 5.706.32 1.782.814 3.55 1.482 5.306H54.17m-10.705-7.78c2.058 0 3.89-.505 5.494-1.515 1.603-1.01 2.686-2.18 3.25-3.51V40.25h-6.54c-2.486 0-4.37.625-5.653 1.875-1.285 1.224-1.926 2.713-1.926 4.468 0 1.437.48 2.594 1.444 3.47.963.88 2.273 1.318 3.93 1.318M22.817 26.01l-4.29-.12c-1.74 0-3.17.36-4.292 1.078-1.123.718-1.978 1.73-2.566 3.032v29.162H0V15.997h10.867l.52 6.383c1.017-2.26 2.327-4.016 3.93-5.266 1.63-1.276 3.503-1.915 5.615-1.915.588 0 1.122.05 1.603.16.508.08 1.016.184 1.524.317L22.814 26.01"/>
  </svg>
</svg>
